<?xml version="1.0" encoding="UTF-8" standalone="no"?>
<svg xmlns:rdf="http://www.w3.org/1999/02/22-rdf-syntax-ns#" xmlns="http://www.w3.org/2000/svg" height="1383pt" width="1550pt" version="1.1" xmlns:cc="http://creativecommons.org/ns#" xmlns:dc="http://purl.org/dc/elements/1.1/" viewBox="0 0 1550 1383">
<path d="m494.46 0c-32.78 11.825-62.47 32.712-86.08 58.199-26.3 27.125-44.79 63.291-48.33 101.2-3.52 21.31-3.41 43.29-0.44 64.63 6.02 35.87 33.55 60.25 57.34 85.08 18.61 31.62-3.77 70.74-36.9 79.65-26.5 9.21-54.94 13.27-80.04 26.14-24.07 8.33-48.07 17.29-71.45 27.41-30.54 12.81-61.4 26.17-88.67 45.05-20.23 12.17-38.7 27.33-55.328 44.04-19.862 16.78-35.949 38.2-48.636 60.81-24.325 38.12-32.964 83.83-35.926 128.33v11.6c1.3125 17.71 2.0246 35.68 7.2871 52.81 4.0749 17.54 8.9509 35.55 17.764 51.3 10.787 25.77 24.386 51.96 46.336 69.91 9.4 9.84 31.843 3.98 29.893-11.2-0.12-15.91-15.043-25.72-24.518-36.8-32.813-41.15-39.55-96.43-36.938-147.48 2.575-47.02 22.814-91.44 51.639-128.08 19.927-23.04 43.087-42.98 67.427-61.13 7.58-4.87 15.37-9.47 22.46-15.08 28-16.07 57.71-28.7 87.85-40.07 21.56-6.76 43.13-13.48 64.79-19.88 32.22-11.52 69.66-11.39 98.48-29.99 0.34-0.3 1.01-0.91 1.34-1.21 17.25-12.43 30.97-29.68 40.18-48.78 12.87-23.15 22.47-48.61 26.26-74.93 3.6-22.57 3.77-47.09-6.31-68.06-9.46-30.4-27.56-57.92-33.88-89.57-4.34-39.1 5.65-82.538 38.47-107.68l1.54-0.995c8.83-3.588 17.78-18.15 7.88-25.225h-13.49zm486.75 131.34c-30.07 0.02-60.32 3.13-89.09 12.01-40.68 14.07-74.35 42.11-107.15 69.12-62.56 53.92-118.73 114.72-174.26 175.75-45.07 54.63-102.52 97.84-164.27 131.98-48.85 24.04-95.6 52.24-140 83.73-73.12 63.91-133.63 144.92-163 238.25-27.22 89.07-24.79 185.72 0.67 274.92 12.77 48.8 48.59 88.8 94.13 109.7 32.52 15.4 55.14 53.8 41.57 89.2-7.72 8.3-23.72 11.4-24.41 25 64.74 84.4 131.92 167.3 193.36 254.2 2.26 6.5 8.31 2.7 11.88 0.4 17.31-8.4 37.39-13.7 55.32-16.7-49.21-60.1-103.81-120.4-133.62-193.7-15.8-34.9-3.8-74.5 14.62-105.8 24.85-42.3 40.78-89.3 51.68-137 24.66-95.4 39-197.53 13.11-294.14-8.31-26.45-17.03-52.95-28.06-78.35 1.39-7.77 14.05-5.36 17.15 0.52 47.66 66.37 69.81 147.91 76.11 228.56 50.17 17.41 95.33 46.81 135.85 80.71 25.59 22 50.73 45.7 82.25 59 37.49 18.5 85.84 20 120.04-6.2-70.76-85.9-136.49-190.08-128.89-306.12 1.82-40.19 8.24-86.63 42.34-112.91-14.57-109.32-1.85-224.78 48.3-324.11 4.17-8.63 10.65-16.11 18.11-22.01 4.79 3.19 3.85 9.69 1.71 14.26-26.3 66.69-39.61 138.63-38.4 210.17 3.88 33.58 5.05 67.43 6.69 101.13-8.18 18.69-24.1 33.12-30.48 52.83-32.91 73.85-15.46 157.92 13.41 230.12 21.6 57.14 50.1 115.84 99.65 154.14 56.21 30 119.27 48.5 168.87 89.8 32 32.3 31.8 82 29.2 124.3-6.1 55.8-51.5 101.1-104.36 115.7-21.56 21.9-9.95 75.8 27.26 70.2 23.8-1.8 41-21.8 54.9-39.1 38-51.2 80.4-98.8 120.4-148.3 14.6-20.8 37.7-45.4 23.8-72.5-52.5-73.2-131.6-132.9-153.8-223.9 0.7-54.84 12.4-121.02-31-164.01-2.3-7-22.8-12.5-13.5-19.51 15.9-2.5 26.5 11.85 35.5 22.5 23.2 25.83 39 58.47 43.4 93 2 34.32 0.3 68.02 0.6 102.32 11.9 12.6 28.9 18.7 42.2 29.8 26.5 22.2 64.9-5.4 70.7-34.9 8.9-43.6 22.3-86.34 38-127.84 5.7-14.7 18.9-29.5 22.9-42.21-2.1-5.8-5.2-13.8-10-16.5-57.9 28.11-69.9 95.83-94.7 148.95-11.1 16.5-9.9-7.9-9.4-15.9 1.7-50.23 2.1-102.25-15-150.41-33.5-72.38-91.7-130.68-120.6-205.61-13.3-31.77-23.19-66.71-19.1-101.03 1.1-39.99 4.5-84.75 32.3-116.24 25.1-22.53 61.8-13.48 89.3-0.25 56.8 28.97 102.5 75.28 146.2 120.39 21.6-16.89-8.6-50.5 5.9-70.14 50.8-10.9 98.1 22.61 136.2 51.15 0.1-37.12 6.9-74.61 15.3-110.27-87-95.96-187.4-179.95-294.4-252.87-39.8-26.36-82.9-55.29-132.6-54.84-6.91-0.29-13.85-0.45-20.79-0.44zm573.79 204.9c-18 12.24-36.7 25.35-51.2 41.23-46 40.54-72.6 106.27-59.9 167.35 4.7 26.1 7.5 58.83 27.2 77.78 3.9 6.06 13.6 4.54 19.9 4.91 34.6 1.48 64-24.22 78.8-53.57-3.4-2.93-7.2-5.31-10.9-7.73-7.6-7.91-14.4-16.51-22.6-23.85-19.3-29.27-30.7-65.5-20.7-100.56 4.9-35 30-60.76 45.7-90.91 4-5.98-1.3-11.93-6.3-14.65zm-448.8 150.82c-10.8-0.02-21.5 1.8-31.9 5.99-32.1 17.21-33.9 59.5-31 91.14 0.4 31.81 15.7 60.81 31.8 87 8.4 18.79 18.2 37.43 28.6 55.13 32.2 63.08 64.5 127.62 77.2 197.8 9.5-16.36 25.1-28.47 37.6-41.68 0.3-0.34 0.9-1 1.2-1.34 12.2-8.74 24-19.56 34.1-30.19-7.2-51.67-10.1-107.47 16.3-154.6 13.9-20.17 31.5-38.74 53.5-50.21-7.2-11.65-17.5-21.65-27.4-31.14-12.6-17.85-30-32.71-45.9-47.72-19.8-20.05-42.2-38.8-66.3-52.92-22.4-15.19-50.2-27.22-77.8-27.26zm226.5 45.4c-6.9-0.07-13.6 1.82-18.7 6.78-8.6 16.61-1.2 35.67 7.6 50.47 22 35.03 53.4 64.08 86.1 88.94 11.5 11.7 27.4 20.1 42.9 25.81 11.6 5.09 31.3-0.43 29.1-15.68 3.7-7.54-0.7-16.91-3.2-23.96-12.5-35.71-41.2-62.72-67.5-88.83-16.3-14.49-33.1-29.75-53.8-37.34-6.5-3.52-14.6-6.12-22.5-6.19zm562.8 55.35c-3.4 0.06-6.3 1.91-7.1 6.24 0.1 4.76 0.8 9.51 1.3 14.27 3.9 35.47-1.8 75.22-31 99.17-5.8 5.04-13 7.77-19 12.37-22.2 10.93-47.3 16.12-72 14.17-2.7 4.91-3.8 10.41-5.3 15.75-6.7 23.68-6.3 60.32 20 71.77 42.5 3.03 91.8 2.74 125.8-27.08 19-16.78 26-42.33 29.3-66.53v-33.43c-0.3-2.3-0.8-4.55-1.3-6.79-2.6-32.47-11.5-65.59-29.9-92.69-1.6-4.41-6.5-7.29-10.8-7.22zm-300.6 6.15c-1.3 0-2.7 0.02-4 0.07-5.1 4.42-9.9 10.11-13.1 16.11-7.1 4.76-12.8 12.95-17.6 19.98-13.7 13.74-28.3 26.62-45.6 35.99-4.2 21.44 5.3 50.96-12.5 68.68-26.2 13.67-58.7 5.45-83.3-8.47-24.4-14-44.4-34.2-62.4-55.43-30.2-3.19-60.7 19.48-67.6 49.33-19.4 52.69-14 118.17 8.7 170.98 7.9 19.44 29.7 35.25 30.2 56.41-3.3 25.28-2 52.99 0.6 78.99 1.7 19.8 19.2 36.9 39.4 36 44.8 2.8 79.6-29.2 119.9-42.6 20.2 4.5 15.2 42.4 36 41.4 15.3-2.6 18.3-22.3 22.1-34.5 2.5-22.7 17.5-40.2 31.6-56.87 12-9.85 22.5-22.63 33.8-32.44 15.6-12.55 31.1-26.3 50.7-32.33 1.8-9.61 1.5-21.37-2.5-30.61-13.3-17.74-40.8 2.71-54.1-14.89-10.3-11.56-20.5-33-39.4-27.71-15.9 2.49-28.1-9.85-38.7-19.2-1.2-8.25-6.4-24 6.4-24.1 8.5 5.81 12.3 17.8 22.5 22.05 14.6 1.18 29.4 2.54 43.5 6.88 11.2 11.32 22 30.16 40.8 24.57 18.7-3.24 40.4 3.06 44.8 23.89 43.8-21.84 65.6-73.36 61.2-120.76-2-55.84-35.5-111.58-86.8-134.85-0.7-2.22-3.7-2.45-5.7-3.07-17.8-9.15-38.6-13.52-58.9-13.5zm-143.2 209.45c2.9 20.18 7.8 39.97 14.3 59.27 3 13.17 15.5 27.46 4.5 40.18-13.7 9.05-34.8 5.68-44.6-7.65-7.3-14.51-8.2-31.41-5.6-47.24 2.3-18.41 12-40.61 31.4-44.56zm307.3 24.16c-7 28-26.8 52.16-52.7 65.08 14.3 9.09 30.1 18.33 44.8 27.47 19.3 14.77 38.4 29.93 56.6 46.22 10.5 5.55 19.2-5.24 20.3-14.79 1.9-25.39 0-54.1-13.5-76.11-9.8-22.93-32.7-39.42-55.5-47.87zm-1520.2 158.74c17.37 64.49 55.8 124.09 100.44 174.39 44.54 45.5 20.19 123.7-24.21 159.2 4.9-35.3 10.53-71.5 3.31-106.8-11.38-36.6-38.06-65.1-58.8-96.4-31.05-35.5-27.44-86.9-20.74-130.39zm1029 10.96c-3.7-0.32-5.8 4.43-5.4 8.03 1 24.4-2.6 48.9-9.7 72.2-3.4 9.5-10.4 17.2-14.8 26.1-15.5 16.2-35.5 26.8-56.7 33.9 12.8 15 25.6 30.3 40.1 43.7 11.5 14.5 25.7 27.1 40.1 38.6 19.5 19.4 41.6 36.8 56.5 60.4 25.4 38.8 1.9 82.4-10.1 121-14 22.8-37.2 37.8-59.3 52.3-13.5 8.9-25.1 24.5-19.9 41.6 1.5 31.2 46.1 41.2 67.5 26 11.8-5 17.7-18 23.9-28.6 23.6-48.3 41.3-99.6 68.8-146 12.5-18.3 23-38.7 30.4-59.8 5.2-22.2 0.2-50.3-19.5-63.8-40.8-45.5-82.4-92.7-104.1-151.1-6.2-25.4-16.3-49.8-26.1-74.06-0.6-0.27-1.1-0.42-1.7-0.47zm-742.98 32.03c-1.27 0.1-2.55 0.1-3.82 0.3-2.99 37.7-13.54 75.3-23.24 112.1l-0.23 1c-6.78 14.1-11.9 31.6-17.69 47.1 7.57-4.2 16.06-8.1 22.5-13.8 12.67-4.5 25.1-9.8 37.57-14.8 25.99-7.3 52.98-11.6 79.18-15.2 0.5 0.1 1.49 0.3 1.97 0.3 23.03-2.6 48.56-1.7 69.98-3.4-9.23-8.9-20.1-19.7-31.58-26.4-22.56-23-49.06-45.6-77.12-62.6-0.25-1.9-2.05-2.2-3.56-2.7-16-9.8-34.88-22-53.96-21.9zm960.88 30c-11.1 5.5-23.8 9.4-34.5 14.2-17.3 3.9-34.9 9.9-52.8 6.9-15.5-0.5-31.4-8.5-46.6-2.9-9.8 6.1-6.4 18.3-4.2 27.3 8.1 22.3 23.2 43 43.8 55 12.1 8.7 28.7 7.6 43 9.7 26.7 0.7 60-1.5 76-26.5 5-10.9 4.2-23.9 1.9-35.2-0.5-17.9-3.1-48.8-26.6-48.5zm-863.52 120.5c-14.35-0.1-28.66 0.6-42.71 3.8-20.81 3.2-42.18 11.5-56.81 27.1-3.46 34.3-6.06 69.1-15.87 102.4-4.58 17-11.89 35-6.34 52.7 6.17 17.3 25.61 22.6 36.7 35.8 33.05 38.4 65.11 77.6 96.7 117.2 17.94-19.1 46.27-23.8 71.22-19.9-16.93-13.7-34.01-28.7-51.25-41.3-21.38-21.1-44.07-42.1-63.78-65.2-15.55-22.6-33.78-48.8-25.79-78 10.93-38.3 46.04-61.2 66.91-93.2 1.25-0.8 2.18-1.9 2.9-3.1 9.67-10.7 16.36-24.2 21.55-37.6-11.09-0.1-22.27-0.6-33.43-0.7zm319.88 258.1c-1.29 0-2.58 0.1-3.87 0.3-28.34 4.8-58.14 11.1-81.98 28-8.72 4.8-15.87 24.7-1.9 27.2 14.38 0.6 31.96-20.8 44.2-5.1-4.64 17.5-27.94 29.2-26.1 50.3-3.02 16.3 18.75 24 30.15 15.2 20.3-13.3 40.32-27.9 57.32-45.2 3.26-21.3 0.17-44.2 8.74-64.9-8.4-2.8-17.5-6.1-26.56-5.8zm260.74 1.1c-24.6-0.1-49 4-67.2 22.7-11.3 3.5-8.6 26.5 1.5 21 18.6-7.7 21.2 16.1 10.6 27.6-4.2 9-19.7 18.5-13.3 30.1 17.4 19.2 54.2 9.8 66.9-10.5 0.3-0.3 0.8-1 1.1-1.3 16.8-15.7 9.6-41.3 12.3-61.7 5.4-6.3 10.7-17.6 12.5-26.7-8-0.6-16.2-1.1-24.4-1.2zm-507.76 80.9c-12.95 0.1-25.13 4.7-32.65 16.2-12.77 25.9-0.89 65.8 27.66 76.3 17.53 11.1 41.29 10.5 61.52 9.9 13.08-4.1-4.34-28 12.33-29.7 18.21 7.8 34.54 19.6 52.81 27.3 12.08 4.3 11.99-13.4 7.24-17.1-21.94-29.8-54-53.4-87.54-69.1-11.01-8.3-26.69-14-41.37-13.8zm-172.78 84.2c-9.89 0-19.98 4.7-26.16 12.3-7.01 14.9-2.33 31.9 3.72 46.4 7 26 25.32 46.9 50.97 56 8.83 4.7 18.52 7.4 28.17 10h3.33c25.8-1 11.17-25.2 4.11-39 0.71-13.9 15.47-2.8 22.2 0.1 3.64 4.2 8.76 6.7 13.84 8.9 9.14 7.6 20.67 14.9 33.1 13.4 8.72-2.4 6.2-15 0.96-20-8.14-14.2-21.22-24.7-32.66-36.2-27.01-23.7-53.65-55.5-93.73-51l-1.08-0.1c-2.21-0.5-4.49-0.8-6.77-0.8z" transform="scale(.8)"/>
</svg>
